<?xml version="1.0" standalone="no"?><svg xmlns="http://www.w3.org/2000/svg" viewBox="0 0 1440 320"><path fill="#dda15e" fill-opacity="1" d="M0,256L30,250.7C60,245,120,235,180,197.3C240,160,300,96,360,85.3C420,75,480,117,540,138.7C600,160,660,160,720,133.3C780,107,840,53,900,48C960,43,1020,85,1080,96C1140,107,1200,85,1260,69.3C1320,53,1380,43,1410,37.3L1440,32L1440,320L1410,320C1380,320,1320,320,1260,320C1200,320,1140,320,1080,320C1020,320,960,320,900,320C840,320,780,320,720,320C660,320,600,320,540,320C480,320,420,320,360,320C300,320,240,320,180,320C120,320,60,320,30,320L0,320Z"></path></svg>